
<svg width="512px" height="512px" viewBox="0 0 512 512" version="1.1" xmlns="http://www.w3.org/2000/svg" xmlns:xlink="http://www.w3.org/1999/xlink">
    <g id="Page-2" stroke="none" stroke-width="1" fill="none" fill-rule="evenodd" stroke-linecap="square">
        <g id="play/ic_launcher_APP" stroke-width="3">
            <g id="AO" transform="translate(-0.500000, 0.000000)">
                <line x1="8.33712224e-17" y1="388.705882" x2="97.9411765" y2="388.705882" id="Line" stroke="#34495E"></line>
                <line x1="97.9411765" y1="0.941176471" x2="228.9375" y2="298.352941" id="Line" stroke="#34495E" stroke-dasharray="6,5" transform="translate(163.439338, 149.647059) scale(-1, 1) translate(-163.439338, -149.647059) "></line>
                <line x1="99.1654412" y1="44.2352941" x2="228.9375" y2="298.352941" id="Line" stroke="#34495E" stroke-dasharray="6,5" transform="translate(164.051471, 171.294118) scale(-1, 1) translate(-164.051471, -171.294118) "></line>
                <line x1="99.1654412" y1="87.5294118" x2="228.9375" y2="298.352941" id="Line" stroke="#34495E" stroke-dasharray="6,5" transform="translate(164.051471, 192.941176) scale(-1, 1) translate(-164.051471, -192.941176) "></line>
                <line x1="99.1654412" y1="132.705882" x2="228.9375" y2="298.352941" id="Line" stroke="#34495E" stroke-dasharray="6,5" transform="translate(164.051471, 215.529412) scale(-1, 1) translate(-164.051471, -215.529412) "></line>
                <line x1="99.1654412" y1="176" x2="228.9375" y2="298.352941" id="Line" stroke="#34495E" stroke-dasharray="6,5" transform="translate(164.051471, 237.176471) scale(-1, 1) translate(-164.051471, -237.176471) "></line>
                <line x1="97.9411765" y1="132.705882" x2="228.9375" y2="320.941176" id="Line" stroke="#34495E" stroke-dasharray="6,5" transform="translate(163.439338, 226.823529) scale(-1, 1) translate(-163.439338, -226.823529) "></line>
                <line x1="97.9411765" y1="87.5294118" x2="228.9375" y2="320.941176" id="Line" stroke="#34495E" stroke-dasharray="6,5" transform="translate(163.439338, 204.235294) scale(-1, 1) translate(-163.439338, -204.235294) "></line>
                <line x1="97.9411765" y1="44.2352941" x2="228.9375" y2="320.941176" id="Line" stroke="#34495E" stroke-dasharray="6,5" transform="translate(163.439338, 182.588235) scale(-1, 1) translate(-163.439338, -182.588235) "></line>
                <line x1="97.9411765" y1="0.941176471" x2="228.9375" y2="320.941176" id="Line" stroke="#34495E" stroke-dasharray="6,5" transform="translate(163.439338, 160.941176) scale(-1, 1) translate(-163.439338, -160.941176) "></line>
                <line x1="99.1654412" y1="0.941176471" x2="228.9375" y2="343.529412" id="Line" stroke="#34495E" stroke-dasharray="6,5" transform="translate(164.051471, 172.235294) scale(-1, 1) translate(-164.051471, -172.235294) "></line>
                <line x1="99.1654412" y1="44.2352941" x2="228.9375" y2="343.529412" id="Line" stroke="#34495E" stroke-dasharray="6,5" transform="translate(164.051471, 193.882353) scale(-1, 1) translate(-164.051471, -193.882353) "></line>
                <line x1="99.1654412" y1="132.705882" x2="228.9375" y2="343.529412" id="Line" stroke="#34495E" stroke-dasharray="6,5" transform="translate(164.051471, 238.117647) scale(-1, 1) translate(-164.051471, -238.117647) "></line>
                <line x1="99.1654412" y1="176" x2="228.9375" y2="343.529412" id="Line" stroke="#34495E" stroke-dasharray="6,5" transform="translate(164.051471, 259.764706) scale(-1, 1) translate(-164.051471, -259.764706) "></line>
                <line x1="97.9411765" y1="336" x2="228.9375" y2="343.529412" id="Line" stroke="#34495E" stroke-dasharray="6,5" transform="translate(163.439338, 339.764706) scale(-1, 1) translate(-163.439338, -339.764706) "></line>
                <line x1="99.1654412" y1="379.294118" x2="228.9375" y2="343.529412" id="Line" stroke="#34495E" stroke-dasharray="6,5" transform="translate(164.051471, 361.411765) scale(-1, 1) translate(-164.051471, -361.411765) "></line>
                <line x1="99.1654412" y1="422.588235" x2="228.9375" y2="343.529412" id="Line" stroke="#34495E" stroke-dasharray="6,5" transform="translate(164.051471, 383.058824) scale(-1, 1) translate(-164.051471, -383.058824) "></line>
                <line x1="97.9411765" y1="0.941176471" x2="228.9375" y2="366.117647" id="Line" stroke="#34495E" stroke-dasharray="6,5" transform="translate(163.439338, 183.529412) scale(-1, 1) translate(-163.439338, -183.529412) "></line>
                <line x1="99.1654412" y1="467.764706" x2="228.9375" y2="343.529412" id="Line" stroke="#34495E" stroke-dasharray="6,5" transform="translate(164.051471, 405.647059) scale(-1, 1) translate(-164.051471, -405.647059) "></line>
                <line x1="99.1654412" y1="511.058824" x2="228.9375" y2="343.529412" id="Line" stroke="#34495E" stroke-dasharray="6,5" transform="translate(164.051471, 427.294118) scale(-1, 1) translate(-164.051471, -427.294118) "></line>
                <line x1="97.9411765" y1="87.5294118" x2="228.9375" y2="320.941176" id="Line" stroke="#34495E" stroke-dasharray="6,5" transform="translate(163.439338, 204.235294) scale(-1, 1) translate(-163.439338, -204.235294) "></line>
                <line x1="99.1654412" y1="132.705882" x2="228.9375" y2="343.529412" id="Line" stroke="#34495E" stroke-dasharray="6,5" transform="translate(164.051471, 238.117647) scale(-1, 1) translate(-164.051471, -238.117647) "></line>
                <line x1="99.1654412" y1="336" x2="228.9375" y2="298.352941" id="Line" stroke="#34495E" stroke-dasharray="6,5" transform="translate(164.051471, 317.176471) scale(-1, 1) translate(-164.051471, -317.176471) "></line>
                <line x1="99.1654412" y1="379.294118" x2="228.9375" y2="298.352941" id="Line" stroke="#34495E" stroke-dasharray="6,5" transform="translate(164.051471, 338.823529) scale(-1, 1) translate(-164.051471, -338.823529) "></line>
                <line x1="99.1654412" y1="422.588235" x2="228.9375" y2="298.352941" id="Line" stroke="#34495E" stroke-dasharray="6,5" transform="translate(164.051471, 360.470588) scale(-1, 1) translate(-164.051471, -360.470588) "></line>
                <line x1="99.1654412" y1="467.764706" x2="228.9375" y2="298.352941" id="Line" stroke="#34495E" stroke-dasharray="6,5" transform="translate(164.051471, 383.058824) scale(-1, 1) translate(-164.051471, -383.058824) "></line>
                <line x1="99.1654412" y1="511.058824" x2="228.9375" y2="298.352941" id="Line" stroke="#34495E" stroke-dasharray="6,5" transform="translate(164.051471, 404.705882) scale(-1, 1) translate(-164.051471, -404.705882) "></line>
                <line x1="97.9411765" y1="511.058824" x2="228.9375" y2="320.941176" id="Line" stroke="#34495E" stroke-dasharray="6,5" transform="translate(163.439338, 416.000000) scale(-1, 1) translate(-163.439338, -416.000000) "></line>
                <line x1="97.9411765" y1="467.764706" x2="228.9375" y2="320.941176" id="Line" stroke="#34495E" stroke-dasharray="6,5" transform="translate(163.439338, 394.352941) scale(-1, 1) translate(-163.439338, -394.352941) "></line>
                <line x1="97.9411765" y1="422.588235" x2="228.9375" y2="320.941176" id="Line" stroke="#34495E" stroke-dasharray="6,5" transform="translate(163.439338, 371.764706) scale(-1, 1) translate(-163.439338, -371.764706) "></line>
                <line x1="97.9411765" y1="379.294118" x2="228.9375" y2="320.941176" id="Line" stroke="#34495E" stroke-dasharray="6,5" transform="translate(163.439338, 350.117647) scale(-1, 1) translate(-163.439338, -350.117647) "></line>
                <line x1="97.9411765" y1="336" x2="228.9375" y2="320.941176" id="Line" stroke="#34495E" stroke-dasharray="6,5" transform="translate(163.439338, 328.470588) scale(-1, 1) translate(-163.439338, -328.470588) "></line>
                <line x1="97.9411765" y1="176" x2="228.9375" y2="320.941176" id="Line" stroke="#34495E" stroke-dasharray="6,5" transform="translate(163.439338, 248.470588) scale(-1, 1) translate(-163.439338, -248.470588) "></line>
                <line x1="328.102941" y1="241.882353" x2="415.025735" y2="0.941176471" id="Line" stroke="#41B883" stroke-dasharray="6,5" transform="translate(371.564338, 121.411765) scale(-1, 1) translate(-371.564338, -121.411765) "></line>
                <line x1="328.102941" y1="241.882353" x2="415.025735" y2="44.2352941" id="Line" stroke="#41B883" stroke-dasharray="6,5" transform="translate(371.564338, 143.058824) scale(-1, 1) translate(-371.564338, -143.058824) "></line>
                <line x1="328.102941" y1="241.882353" x2="415.025735" y2="87.5294118" id="Line" stroke="#41B883" stroke-dasharray="6,5" transform="translate(371.564338, 164.705882) scale(-1, 1) translate(-371.564338, -164.705882) "></line>
                <line x1="328.102941" y1="241.882353" x2="415.025735" y2="132.705882" id="Line" stroke="#41B883" stroke-dasharray="6,5" transform="translate(371.564338, 187.294118) scale(-1, 1) translate(-371.564338, -187.294118) "></line>
                <line x1="328.102941" y1="241.882353" x2="415.025735" y2="176" id="Line" stroke="#41B883" stroke-dasharray="6,5" transform="translate(371.564338, 208.941176) scale(-1, 1) translate(-371.564338, -208.941176) "></line>
                <line x1="328.102941" y1="241.882353" x2="415.025735" y2="336" id="Line" stroke="#41B883" stroke-dasharray="6,5" transform="translate(371.564338, 288.941176) scale(-1, 1) translate(-371.564338, -288.941176) "></line>
                <line x1="328.102941" y1="241.882353" x2="415.025735" y2="379.294118" id="Line" stroke="#41B883" stroke-dasharray="6,5" transform="translate(371.564338, 310.588235) scale(-1, 1) translate(-371.564338, -310.588235) "></line>
                <line x1="328.102941" y1="241.882353" x2="415.025735" y2="422.588235" id="Line" stroke="#41B883" stroke-dasharray="6,5" transform="translate(371.564338, 332.235294) scale(-1, 1) translate(-371.564338, -332.235294) "></line>
                <line x1="328.102941" y1="241.882353" x2="415.025735" y2="467.764706" id="Line" stroke="#41B883" stroke-dasharray="6,5" transform="translate(371.564338, 354.823529) scale(-1, 1) translate(-371.564338, -354.823529) "></line>
                <line x1="330.551471" y1="241.882353" x2="415.025735" y2="511.058824" id="Line" stroke="#41B883" stroke-dasharray="6,5" transform="translate(372.788603, 376.470588) scale(-1, 1) translate(-372.788603, -376.470588) "></line>
                <line x1="330.551471" y1="264.470588" x2="415.025735" y2="511.058824" id="Line" stroke="#41B883" stroke-dasharray="6,5" transform="translate(372.788603, 387.764706) scale(-1, 1) translate(-372.788603, -387.764706) "></line>
                <line x1="328.102941" y1="264.470588" x2="415.025735" y2="467.764706" id="Line" stroke="#41B883" stroke-dasharray="6,5" transform="translate(371.564338, 366.117647) scale(-1, 1) translate(-371.564338, -366.117647) "></line>
                <line x1="328.102941" y1="264.470588" x2="415.025735" y2="422.588235" id="Line" stroke="#41B883" stroke-dasharray="6,5" transform="translate(371.564338, 343.529412) scale(-1, 1) translate(-371.564338, -343.529412) "></line>
                <line x1="328.102941" y1="264.470588" x2="415.025735" y2="379.294118" id="Line" stroke="#41B883" stroke-dasharray="6,5" transform="translate(371.564338, 321.882353) scale(-1, 1) translate(-371.564338, -321.882353) "></line>
                <line x1="328.102941" y1="264.470588" x2="415.025735" y2="336" id="Line" stroke="#41B883" stroke-dasharray="6,5" transform="translate(371.564338, 300.235294) scale(-1, 1) translate(-371.564338, -300.235294) "></line>
                <line x1="328.102941" y1="264.470588" x2="415.025735" y2="176" id="Line" stroke="#41B883" stroke-dasharray="6,5" transform="translate(371.564338, 220.235294) scale(-1, 1) translate(-371.564338, -220.235294) "></line>
                <line x1="328.102941" y1="264.470588" x2="415.025735" y2="132.705882" id="Line" stroke="#41B883" stroke-dasharray="6,5" transform="translate(371.564338, 198.588235) scale(-1, 1) translate(-371.564338, -198.588235) "></line>
                <line x1="328.102941" y1="264.470588" x2="415.025735" y2="87.5294118" id="Line" stroke="#41B883" stroke-dasharray="6,5" transform="translate(371.564338, 176.000000) scale(-1, 1) translate(-371.564338, -176.000000) "></line>
                <line x1="328.102941" y1="264.470588" x2="415.025735" y2="44.2352941" id="Line" stroke="#41B883" stroke-dasharray="6,5" transform="translate(371.564338, 154.352941) scale(-1, 1) translate(-371.564338, -154.352941) "></line>
                <line x1="328.102941" y1="264.470588" x2="415.025735" y2="0.941176471" id="Line" stroke="#41B883" stroke-dasharray="6,5" transform="translate(371.564338, 132.705882) scale(-1, 1) translate(-371.564338, -132.705882) "></line>
                <line x1="328.102941" y1="287.058824" x2="415.025735" y2="0.941176471" id="Line" stroke="#41B883" stroke-dasharray="6,5" transform="translate(371.564338, 144.000000) scale(-1, 1) translate(-371.564338, -144.000000) "></line>
                <line x1="328.102941" y1="287.058824" x2="415.025735" y2="44.2352941" id="Line" stroke="#41B883" stroke-dasharray="6,5" transform="translate(371.564338, 165.647059) scale(-1, 1) translate(-371.564338, -165.647059) "></line>
                <line x1="328.102941" y1="287.058824" x2="415.025735" y2="87.5294118" id="Line" stroke="#41B883" stroke-dasharray="6,5" transform="translate(371.564338, 187.294118) scale(-1, 1) translate(-371.564338, -187.294118) "></line>
                <line x1="328.102941" y1="287.058824" x2="415.025735" y2="132.705882" id="Line" stroke="#41B883" stroke-dasharray="6,5" transform="translate(371.564338, 209.882353) scale(-1, 1) translate(-371.564338, -209.882353) "></line>
                <line x1="328.102941" y1="287.058824" x2="415.025735" y2="176" id="Line" stroke="#41B883" stroke-dasharray="6,5" transform="translate(371.564338, 231.529412) scale(-1, 1) translate(-371.564338, -231.529412) "></line>
                <line x1="328.102941" y1="287.058824" x2="415.025735" y2="336" id="Line" stroke="#41B883" stroke-dasharray="6,5" transform="translate(371.564338, 311.529412) scale(-1, 1) translate(-371.564338, -311.529412) "></line>
                <line x1="328.102941" y1="287.058824" x2="415.025735" y2="336" id="Line" stroke="#41B883" stroke-dasharray="6,5" transform="translate(371.564338, 311.529412) scale(-1, 1) translate(-371.564338, -311.529412) "></line>
                <line x1="328.102941" y1="287.058824" x2="415.025735" y2="379.294118" id="Line" stroke="#41B883" stroke-dasharray="6,5" transform="translate(371.564338, 333.176471) scale(-1, 1) translate(-371.564338, -333.176471) "></line>
                <line x1="328.102941" y1="287.058824" x2="415.025735" y2="422.588235" id="Line" stroke="#41B883" stroke-dasharray="6,5" transform="translate(371.564338, 354.823529) scale(-1, 1) translate(-371.564338, -354.823529) "></line>
                <line x1="328.102941" y1="287.058824" x2="415.025735" y2="467.764706" id="Line" stroke="#41B883" stroke-dasharray="6,5" transform="translate(371.564338, 377.411765) scale(-1, 1) translate(-371.564338, -377.411765) "></line>
                <line x1="330.551471" y1="287.058824" x2="415.025735" y2="511.058824" id="Line" stroke="#41B883" stroke-dasharray="6,5" transform="translate(372.788603, 399.058824) scale(-1, 1) translate(-372.788603, -399.058824) "></line>
                <line x1="328.102941" y1="241.882353" x2="415.025735" y2="0.941176471" id="Line" stroke="#41B883" stroke-dasharray="6,5" transform="translate(371.564338, 121.411765) scale(-1, 1) translate(-371.564338, -121.411765) "></line>
                <line x1="415.025735" y1="287.058824" x2="512.966912" y2="287.058824" id="Line-Copy-8" stroke="#41B883"></line>
                <line x1="8.33712224e-17" y1="366.117647" x2="97.9411765" y2="366.117647" id="Line-Copy" stroke="#34495E"></line>
                <line x1="415.025735" y1="264.470588" x2="512.966912" y2="264.470588" id="Line-Copy-9" stroke="#41B883"></line>
                <line x1="8.33712224e-17" y1="343.529412" x2="97.9411765" y2="343.529412" id="Line-Copy-2" stroke="#34495E"></line>
                <line x1="415.025735" y1="241.882353" x2="512.966912" y2="241.882353" id="Line-Copy-10" stroke="#41B883"></line>
                <line x1="8.33712224e-17" y1="320.941176" x2="97.9411765" y2="320.941176" id="Line-Copy-3" stroke="#34495E"></line>
                <line x1="8.33712224e-17" y1="298.352941" x2="97.9411765" y2="298.352941" id="Line-Copy-11" stroke="#34495E"></line>
                <line x1="99.1654412" y1="511.058824" x2="228.9375" y2="388.705882" id="Line" stroke="#34495E" stroke-dasharray="6,5" transform="translate(164.051471, 449.882353) scale(-1, 1) translate(-164.051471, -449.882353) "></line>
                <line x1="99.1654412" y1="511.058824" x2="228.9375" y2="366.117647" id="Line" stroke="#34495E" stroke-dasharray="6,5" transform="translate(164.051471, 438.588235) scale(-1, 1) translate(-164.051471, -438.588235) "></line>
                <line x1="99.1654412" y1="467.764706" x2="228.9375" y2="388.705882" id="Line" stroke="#34495E" stroke-dasharray="6,5" transform="translate(164.051471, 428.235294) scale(-1, 1) translate(-164.051471, -428.235294) "></line>
                <line x1="99.1654412" y1="422.588235" x2="228.9375" y2="388.705882" id="Line" stroke="#34495E" stroke-dasharray="6,5" transform="translate(164.051471, 405.647059) scale(-1, 1) translate(-164.051471, -405.647059) "></line>
                <line x1="99.1654412" y1="379.294118" x2="228.9375" y2="388.705882" id="Line" stroke="#34495E" stroke-dasharray="6,5" transform="translate(164.051471, 384.000000) scale(-1, 1) translate(-164.051471, -384.000000) "></line>
                <line x1="99.1654412" y1="336" x2="228.9375" y2="388.705882" id="Line" stroke="#34495E" stroke-dasharray="6,5" transform="translate(164.051471, 362.352941) scale(-1, 1) translate(-164.051471, -362.352941) "></line>
                <line x1="99.1654412" y1="176" x2="228.9375" y2="388.705882" id="Line" stroke="#34495E" stroke-dasharray="6,5" transform="translate(164.051471, 282.352941) scale(-1, 1) translate(-164.051471, -282.352941) "></line>
                <line x1="99.1654412" y1="132.705882" x2="228.9375" y2="388.705882" id="Line" stroke="#34495E" stroke-dasharray="6,5" transform="translate(164.051471, 260.705882) scale(-1, 1) translate(-164.051471, -260.705882) "></line>
                <line x1="99.1654412" y1="87.5294118" x2="228.9375" y2="388.705882" id="Line" stroke="#34495E" stroke-dasharray="6,5" transform="translate(164.051471, 238.117647) scale(-1, 1) translate(-164.051471, -238.117647) "></line>
                <line x1="99.1654412" y1="44.2352941" x2="228.9375" y2="388.705882" id="Line" stroke="#34495E" stroke-dasharray="6,5" transform="translate(164.051471, 216.470588) scale(-1, 1) translate(-164.051471, -216.470588) "></line>
                <line x1="97.9411765" y1="0.941176471" x2="228.9375" y2="388.705882" id="Line" stroke="#34495E" stroke-dasharray="6,5" transform="translate(163.439338, 194.823529) scale(-1, 1) translate(-163.439338, -194.823529) "></line>
                <line x1="99.1654412" y1="467.764706" x2="228.9375" y2="366.117647" id="Line" stroke="#34495E" stroke-dasharray="6,5" transform="translate(164.051471, 416.941176) scale(-1, 1) translate(-164.051471, -416.941176) "></line>
                <line x1="99.1654412" y1="422.588235" x2="228.9375" y2="366.117647" id="Line" stroke="#34495E" stroke-dasharray="6,5" transform="translate(164.051471, 394.352941) scale(-1, 1) translate(-164.051471, -394.352941) "></line>
                <line x1="99.1654412" y1="467.764706" x2="228.9375" y2="366.117647" id="Line" stroke="#34495E" stroke-dasharray="6,5" transform="translate(164.051471, 416.941176) scale(-1, 1) translate(-164.051471, -416.941176) "></line>
                <line x1="99.1654412" y1="379.294118" x2="228.9375" y2="366.117647" id="Line" stroke="#34495E" stroke-dasharray="6,5" transform="translate(164.051471, 372.705882) scale(-1, 1) translate(-164.051471, -372.705882) "></line>
                <line x1="99.1654412" y1="336" x2="228.9375" y2="366.117647" id="Line" stroke="#34495E" stroke-dasharray="6,5" transform="translate(164.051471, 351.058824) scale(-1, 1) translate(-164.051471, -351.058824) "></line>
                <line x1="99.1654412" y1="176" x2="228.9375" y2="366.117647" id="Line" stroke="#34495E" stroke-dasharray="6,5" transform="translate(164.051471, 271.058824) scale(-1, 1) translate(-164.051471, -271.058824) "></line>
                <line x1="99.1654412" y1="132.705882" x2="228.9375" y2="366.117647" id="Line" stroke="#34495E" stroke-dasharray="6,5" transform="translate(164.051471, 249.411765) scale(-1, 1) translate(-164.051471, -249.411765) "></line>
                <line x1="99.1654412" y1="87.5294118" x2="228.9375" y2="366.117647" id="Line" stroke="#34495E" stroke-dasharray="6,5" transform="translate(164.051471, 226.823529) scale(-1, 1) translate(-164.051471, -226.823529) "></line>
                <line x1="99.1654412" y1="87.5294118" x2="228.9375" y2="343.529412" id="Line" stroke="#34495E" stroke-dasharray="6,5" transform="translate(164.051471, 215.529412) scale(-1, 1) translate(-164.051471, -215.529412) "></line>
                <line x1="99.1654412" y1="44.2352941" x2="228.9375" y2="366.117647" id="Line" stroke="#34495E" stroke-dasharray="6,5" transform="translate(164.051471, 205.176471) scale(-1, 1) translate(-164.051471, -205.176471) "></line>
                <line x1="99.1654412" y1="0.941176471" x2="228.9375" y2="366.117647" id="Line" stroke="#34495E" stroke-dasharray="6,5" transform="translate(164.051471, 183.529412) scale(-1, 1) translate(-164.051471, -183.529412) "></line>
                <line x1="230.161765" y1="176" x2="328.102941" y2="176" id="Line-Copy-4" stroke="#6AE4C8"></line>
                <line x1="229.549632" y1="132.705882" x2="327.490809" y2="132.705882" id="Line-Copy-5" stroke="#6AE4C8"></line>
                <line x1="229.549632" y1="87.5294118" x2="327.490809" y2="87.5294118" id="Line-Copy-6" stroke="#6AE4C8"></line>
                <line x1="229.549632" y1="44.2352941" x2="327.490809" y2="44.2352941" id="Line-Copy-7" stroke="#6AE4C8"></line>
                <line x1="229.549632" y1="0.941176471" x2="327.490809" y2="0.941176471" id="Line-Copy-16" stroke="#6AE4C8"></line>
                <line x1="230.161765" y1="511.058824" x2="328.102941" y2="511.058824" id="Line-Copy-4" stroke="#1A3C34"></line>
                <line x1="229.549632" y1="467.764706" x2="327.490809" y2="467.764706" id="Line-Copy-5" stroke="#1A3C34"></line>
                <line x1="228.9375" y1="422.588235" x2="327.490809" y2="422.588235" id="Line-Copy-6" stroke="#1A3C34"></line>
                <line x1="229.549632" y1="379.294118" x2="327.490809" y2="379.294118" id="Line-Copy-7" stroke="#1A3C34"></line>
                <line x1="229.549632" y1="336" x2="327.490809" y2="336" id="Line-Copy-16" stroke="#1A3C34"></line>
            </g>
        </g>
    </g>
</svg>
